<?xml version="1.0" encoding="UTF-8" standalone="no"?>
<svg
   xmlns:dc="http://purl.org/dc/elements/1.1/"
   xmlns:cc="http://creativecommons.org/ns#"
   xmlns:rdf="http://www.w3.org/1999/02/22-rdf-syntax-ns#"
   xmlns:svg="http://www.w3.org/2000/svg"
   xmlns="http://www.w3.org/2000/svg"
   viewBox="0 0 1066.6667 1066.6667"
   height="1066.6667"
   width="1066.6667"
   xml:space="preserve"
   id="svg2"
   version="1.1"><metadata
     id="metadata8"><rdf:RDF><cc:Work
         rdf:about=""><dc:format>image/svg+xml</dc:format><dc:type
           rdf:resource="http://purl.org/dc/dcmitype/StillImage" /></cc:Work></rdf:RDF></metadata><defs
     id="defs6"><clipPath
       id="clipPath22"
       clipPathUnits="userSpaceOnUse"><path
         id="path20"
         d="M 0,800 H 800 V 0 H 0 Z" /></clipPath></defs><g
     transform="matrix(1.3333333,0,0,-1.3333333,0,1066.6667)"
     id="g10"><g
       transform="translate(557.5,435.6421)"
       id="g12"><path
         id="path14"
         style="fill:#89c4f4;fill-opacity:1;fill-rule:nonzero;stroke:none"
         d="m 0,0 -105.755,-23.543 40.998,272.901 -185.514,-82.806 -185.052,82.806 46.817,-272.901 L -500,0 -250.271,-320.642 Z" /></g><g
       id="g16"><g
         clip-path="url(#clipPath22)"
         id="g18"><g
           transform="translate(662.8048,130.9597)"
           id="g24"><path
             id="path26"
             style="fill:#89c4f4;fill-opacity:1;fill-rule:nonzero;stroke:none"
             d="m 0,0 c -35.346,0 -63.902,28.654 -63.902,64 0,26.856 16.097,49.834 40.097,59.33 v 390.71 h -0.187 c -10e-4,0 -0.008,0.033 -0.008,0.142 0,13.255 10.745,23.909 24,23.909 13.255,0 24,-10.609 24,-23.863 0,-0.109 -0.007,-0.188 -0.008,-0.188 h 0.203 V 123.33 C 47.195,113.834 64.098,90.856 64.098,64 64.098,28.654 35.346,0 0,0 M 40.195,133.271 V 514.04 h -0.203 c 0.001,0 0.008,0.033 0.008,0.142 0,22.091 -17.909,39.909 -40,39.909 -22.091,0 -40,-17.772 -40,-39.863 0,-0.109 0.007,-0.188 0.008,-0.188 h 0.187 V 133.271 c -24,-13.834 -40.097,-39.665 -40.097,-69.271 0,-44.183 35.768,-80 79.951,-80 44.183,0 80.073,35.817 80.073,80 0,29.606 -15.927,55.437 -39.927,69.271" /></g><g
           transform="translate(679,248.6271)"
           id="g28"><path
             id="path30"
             style="fill:#89c4f4;fill-opacity:1;fill-rule:nonzero;stroke:none"
             d="M 0,0 V 55.373 H -32 V 0 c -23,-6.886 -40.098,-28.301 -40.098,-53.668 0,-30.928 25.024,-56 55.952,-56 30.927,0 56.073,25.072 56.073,56 C 39.927,-28.301 23,-6.886 0,0" /></g></g></g></g></svg>