<?xml version="1.0" encoding="UTF-8" standalone="no"?>
<svg
   xmlns:dc="http://purl.org/dc/elements/1.1/"
   xmlns:cc="http://creativecommons.org/ns#"
   xmlns:rdf="http://www.w3.org/1999/02/22-rdf-syntax-ns#"
   xmlns:svg="http://www.w3.org/2000/svg"
   xmlns="http://www.w3.org/2000/svg"
   viewBox="0 0 1066.6667 1066.6667"
   height="1066.6667"
   width="1066.6667"
   xml:space="preserve"
   id="svg2"
   version="1.1"><metadata
     id="metadata8"><rdf:RDF><cc:Work
         rdf:about=""><dc:format>image/svg+xml</dc:format><dc:type
           rdf:resource="http://purl.org/dc/dcmitype/StillImage" /></cc:Work></rdf:RDF></metadata><defs
     id="defs6"><clipPath
       id="clipPath18"
       clipPathUnits="userSpaceOnUse"><path
         id="path16"
         d="M 0,800 H 800 V 0 H 0 Z" /></clipPath></defs><g
     transform="matrix(1.3333333,0,0,-1.3333333,0,1066.6667)"
     id="g10"><g
       id="g12"><g
         clip-path="url(#clipPath18)"
         id="g14"><g
           transform="translate(28.232,123.7734)"
           id="g20"><path
             id="path22"
             style="fill:#7f6633;fill-opacity:1;fill-rule:nonzero;stroke:none"
             d="m 0,0 c -3.028,-5.303 -6.414,-10.534 -8.49,-16.217 -3.03,-8.296 1.419,-14.055 10.261,-14.452 1.497,-0.067 681.602,-0.166 683.401,0.092 5.657,0.811 8.534,5.954 6.075,10.99 -4.569,9.356 -9.185,18.692 -13.974,27.937 -2.358,4.551 -5.817,7.391 -11.55,7.048 -6.476,-0.387 -13.011,-0.378 -19.485,0.027 -3.518,0.22 -7.384,0.892 -10.362,2.62 -9.862,5.721 -20.81,6.28 -31.603,7.084 -5.888,0.439 -10.577,2.177 -14.635,6.273 -7.974,8.05 -15.726,16.356 -24.13,23.935 -5.743,5.179 -12.11,9.859 -18.774,13.783 -12.605,7.423 -20.789,16.732 -20.363,32.581 0.158,5.894 -2.387,12.471 -5.477,17.682 -3.671,6.192 -9.541,11.035 -13.928,16.862 -3.751,4.982 -8.118,10.144 -9.745,15.922 -2.116,7.513 -2.614,15.741 -2.359,23.614 0.665,20.49 -4.888,39.203 -13.842,57.337 -3.318,6.718 -7.208,13.552 -6.388,21.658 0.126,1.251 -0.336,2.651 -0.827,3.86 -3.543,8.742 -6.718,17.671 -10.848,26.131 -10.658,21.83 -21.679,43.484 -32.694,65.138 -6.369,12.52 -13.098,24.858 -19.444,37.39 -1.226,2.422 -2.14,5.408 -1.973,8.057 0.536,8.495 -2.713,15.869 -7.217,22.357 -6.516,9.385 -13.959,18.15 -21.329,26.907 -3.6,4.276 -5.849,8.64 -5.65,14.384 0.271,7.822 0.313,15.672 -0.011,23.491 -0.256,6.202 0.968,11.785 4.273,17.053 6.13,9.77 4.511,19.222 -1.273,28.593 -3.643,5.903 -6.748,12.136 -10.289,18.105 -6.503,10.96 -11.98,22.625 -21.838,31.284 -5.468,4.804 -8.976,5.384 -13.549,-0.278 -6.539,-8.097 -12.614,-16.669 -18.001,-25.575 z" /></g><g
           transform="translate(782.9018,226.9402)"
           id="g24"><path
             id="path26"
             style="fill:#7f6633;fill-opacity:1;fill-rule:nonzero;stroke:none"
             d="m 0,0 c 0,-3.83 -0.389,-7.708 0.074,-11.482 1.331,-10.855 -2.905,-19.612 -9.17,-28.035 -12.871,-17.307 -30.742,-24.32 -51.412,-26.391 -24.129,-2.419 -42.328,6.965 -55.314,27.04 -7.457,11.529 -14.72,23.185 -21.998,34.828 -0.863,1.379 -1.642,2.996 -1.83,4.578 -0.896,7.548 -2.159,15.127 -2.094,22.684 0.034,3.983 1.486,8.886 4.087,11.747 9.462,10.406 19.336,20.503 29.72,29.988 8.525,7.786 19.703,9.753 30.826,11.166 18.881,2.398 35.438,-4.601 50.759,-14.1 9.21,-5.711 17.66,-13.438 22.055,-23.825 2.457,-5.804 3.47,-12.39 4.146,-18.729 C 0.533,13.047 0,6.495 0,0" /></g><g
           transform="translate(610.9565,512.2778)"
           id="g28"><path
             id="path30"
             style="fill:#7f6633;fill-opacity:1;fill-rule:nonzero;stroke:none"
             d="M 0,0 C 0.36,-23.372 -9.438,-35.058 -21.424,-45.363 -33.488,-55.736 -47.948,-61.475 -63.5,-62.91 c -15.75,-1.453 -29.458,5.106 -41.185,15.416 -6.489,5.705 -12.061,12.045 -15.264,20.527 -3.675,9.73 -1.925,18.799 1.921,27.512 6.971,15.791 18.502,27.464 33.563,36.128 9.257,5.325 18.324,10.561 28.928,12.669 20.179,4.013 30.203,1.278 41.591,-14.843 C -5.407,22.41 -0.321,8.841 0,0" /></g><g
           transform="translate(686.6453,331.0589)"
           id="g32"><path
             id="path34"
             style="fill:#7f6633;fill-opacity:1;fill-rule:nonzero;stroke:none"
             d="m 0,0 c -20.145,0 -36.572,10.903 -42.537,30.237 -4.986,16.163 1.665,35.344 17.91,44.046 7.251,3.883 16.402,3.712 23.532,-2.243 C 6.919,65.347 14.97,58.565 22.084,50.96 30.796,41.645 34.648,30.307 31.085,17.491 28.38,7.762 17.657,0.066 7.484,0.003 4.99,-0.013 2.495,0 0,0" /></g><g
           transform="translate(600.0225,387.2282)"
           id="g36"><path
             id="path38"
             style="fill:#7f6633;fill-opacity:1;fill-rule:nonzero;stroke:none"
             d="m 0,0 c -1.321,-3.824 -1.81,-8.81 -4.43,-12.1 -6.043,-7.59 -13.608,-8.207 -22.51,-2.005 -6.64,4.625 -12.852,9.993 -18.676,15.628 -6.213,6.012 -4.578,15.208 3.251,19.18 10.341,5.248 29.819,6.142 38.99,-8.017 C -1.295,9.474 -1.244,4.948 0,0" /></g><g
           transform="translate(576.005,257.0679)"
           id="g40"><path
             id="path42"
             style="fill:#7f6633;fill-opacity:1;fill-rule:nonzero;stroke:none"
             d="m 0,0 c -8.268,-0.001 -16.676,5.696 -19.939,13.694 -1.125,2.757 -2.052,5.62 -2.775,8.508 -1.452,5.799 2.836,12.42 8.671,13.659 C -3.037,38.199 12.105,31.982 18.406,22.687 21.468,18.17 21.501,13.867 18.434,9.35 13.604,2.236 9.338,0.001 0,0" /></g><g
           transform="translate(424.997,597.7802)"
           id="g44"><path
             id="path46"
             style="fill:#7f6633;fill-opacity:1;fill-rule:nonzero;stroke:none"
             d="m 0,0 c 0,1.827 -0.181,3.676 0.033,5.478 0.679,5.7 5.707,8.704 10.744,6.47 8.141,-3.61 14.253,-9.65 19.173,-16.847 3.521,-5.15 2.551,-12.308 -1.628,-16.426 C 24.155,-25.43 17.11,-26.129 11.854,-22.613 3.858,-17.263 -0.308,-9.762 0,0" /></g><g
           transform="translate(549.9824,369.51)"
           id="g48"><path
             id="path50"
             style="fill:#7f6633;fill-opacity:1;fill-rule:nonzero;stroke:none"
             d="m 0,0 c -1.434,-2.547 -2.367,-6.615 -4.419,-7.292 -3.223,-1.063 -7.909,-1.033 -10.722,0.641 -7.763,4.62 -9.105,13.181 -9.554,21.231 -0.319,5.722 4.227,7.981 9.603,5.949 C -7.362,17.607 -1.055,8.652 0,0" /></g><g
           transform="translate(462.8315,522.9229)"
           id="g52"><path
             id="path54"
             style="fill:#7f6633;fill-opacity:1;fill-rule:nonzero;stroke:none"
             d="m 0,0 c -3.232,-0.538 -6.956,1.121 -9.163,4.714 -1.384,2.253 -2.655,6.053 -1.658,7.923 1.309,2.456 5.198,5.471 7.447,5.092 C 1.442,16.918 6.495,14.837 10.374,11.868 14.384,8.799 10.883,1.516 5.177,0.297 3.892,0.023 2.526,0.13 0,0" /></g><g
           transform="translate(572.9662,223.0749)"
           id="g56"><path
             id="path58"
             style="fill:#7f6633;fill-opacity:1;fill-rule:nonzero;stroke:none"
             d="m 0,0 c -6.192,-0.01 -12.137,5.975 -11.985,12.067 0.147,5.914 7.447,9.916 12.995,6.921 C 3.001,17.914 4.714,16.216 6.328,14.58 8.824,12.05 11.049,9.326 9.252,5.356 7.627,1.769 4.639,0.007 0,0" /></g><g
           transform="translate(595.359,235.6387)"
           id="g60"><path
             id="path62"
             style="fill:#7f6633;fill-opacity:1;fill-rule:nonzero;stroke:none"
             d="m 0,0 c 4.838,-0.133 8.993,-1.244 10.705,-5.999 0.66,-1.832 0.337,-4.914 -0.855,-6.255 -1.115,-1.253 -4.23,-1.734 -6.005,-1.152 -2.535,0.832 -5.051,2.589 -6.826,4.61 -1.607,1.828 -2.209,4.539 -3.253,6.861 C -4.156,-1.29 -2.078,-0.645 0,0" /></g><g
           transform="translate(591.0916,215.0732)"
           id="g64"><path
             id="path66"
             style="fill:#7f6633;fill-opacity:1;fill-rule:nonzero;stroke:none"
             d="m 0,0 c 5.059,-0.062 8.05,-2.482 7.743,-6.2 -0.328,-3.968 -2.98,-5.928 -6.678,-5.941 -5.294,-0.018 -5.007,4.06 -5.272,7.783 C -4.461,-0.787 -2.995,0.546 0,0" /></g><g
           transform="translate(452.8033,547.1505)"
           id="g68"><path
             id="path70"
             style="fill:#7f6633;fill-opacity:1;fill-rule:nonzero;stroke:none"
             d="m 0,0 c -5.116,-0.21 -10.29,3.855 -9.36,6.705 0.681,2.086 3.358,4.293 5.575,4.915 2.99,0.839 8.092,-3.606 7.467,-6.365 C 3.174,3.013 0.878,1.177 0,0" /></g><g
           transform="translate(525.9037,414.3024)"
           id="g72"><path
             id="path74"
             style="fill:#7f6633;fill-opacity:1;fill-rule:nonzero;stroke:none"
             d="M 0,0 C 3.693,0.757 5.769,1.797 7.499,1.384 9.72,0.854 11.848,-0.636 13.586,-2.193 13.987,-2.552 12.934,-5.818 12.043,-6.09 9.615,-6.831 6.532,-7.558 4.44,-6.634 2.595,-5.82 1.738,-2.771 0,0" /></g></g></g></g></svg>