<?xml version="1.0" encoding="UTF-8" standalone="no"?>
<svg
   xmlns:dc="http://purl.org/dc/elements/1.1/"
   xmlns:cc="http://creativecommons.org/ns#"
   xmlns:rdf="http://www.w3.org/1999/02/22-rdf-syntax-ns#"
   xmlns:svg="http://www.w3.org/2000/svg"
   xmlns="http://www.w3.org/2000/svg"
   viewBox="0 0 1066.6667 1066.6667"
   height="1066.6667"
   width="1066.6667"
   xml:space="preserve"
   id="svg2"
   version="1.1"><metadata
     id="metadata8"><rdf:RDF><cc:Work
         rdf:about=""><dc:format>image/svg+xml</dc:format><dc:type
           rdf:resource="http://purl.org/dc/dcmitype/StillImage" /></cc:Work></rdf:RDF></metadata><defs
     id="defs6"><clipPath
       id="clipPath18"
       clipPathUnits="userSpaceOnUse"><path
         id="path16"
         d="M 0,800 H 800 V 0 H 0 Z" /></clipPath><clipPath
       id="clipPath38"
       clipPathUnits="userSpaceOnUse"><path
         id="path36"
         d="M 0,800 H 800 V 0 H 0 Z" /></clipPath></defs><g
     transform="matrix(1.3333333,0,0,-1.3333333,0,1066.6667)"
     id="g10"><g
       id="g12"><g
         clip-path="url(#clipPath18)"
         id="g14"><text
           id="text22"
           style="font-variant:normal;font-weight:normal;font-stretch:normal;font-size:200px;font-family:Roboto-Black;-inkscape-font-specification:Roboto-Black;writing-mode:lr-tb;fill:#000000;fill-opacity:1;fill-rule:nonzero;stroke:none"
           transform="matrix(1,0,0,-1,32.9702,27.2861)"><tspan
             id="tspan20"
             y="0"
             x="0 140.39999">NW</tspan></text>
</g></g><text
       id="text26"
       style="font-variant:normal;font-weight:normal;font-stretch:normal;font-size:400px;font-family:Roboto-Black;-inkscape-font-specification:Roboto-Black;writing-mode:lr-tb;fill:#000000;fill-opacity:1;fill-rule:nonzero;stroke:none"
       transform="matrix(1,0,0,-1,514.9126,322.501)"><tspan
         id="tspan24"
         y="0"
         x="0">8</tspan></text>
<g
       transform="translate(26.7737,392.9614)"
       id="g28"><path
         id="path30"
         style="fill:#000000;fill-opacity:1;fill-rule:nonzero;stroke:none"
         d="M 0,0 206,206 412,0 Z" /></g><g
       id="g32"><g
         clip-path="url(#clipPath38)"
         id="g34"><g
           transform="translate(504.1977,144.7716)"
           id="g40"><path
             id="path42"
             style="fill:#000000;fill-opacity:1;fill-rule:nonzero;stroke:none"
             d="m 0,0 v -31.899 c 0,-3.376 1.172,-5.5 3.52,-6.381 2.344,-0.88 8.36,-1.32 18.041,-1.32 4.543,0 9.164,0.292 13.859,0.88 V 0 Z M -17.16,52.36 H -47.08 V 16.28 h 29.92 z M -100.54,-89.319 H 35.42 v 33.439 c -4.547,-0.588 -9.168,-0.88 -13.859,-0.88 -17.161,0 -27.721,1.172 -31.681,3.52 -4.548,3.373 -6.896,9.093 -7.04,17.16 V 0 h -29.92 v -1.76 c 0,-24.496 -12.908,-44.219 -38.72,-59.179 l -10.34,16.279 c 21.265,11.44 31.824,25.74 31.68,42.9 V 0 h -36.08 z M 52.58,16.28 V -122.1 H 35.42 v 16.281 H -100.54 V -122.1 H -117.7 V 16.28 h 53.24 v 36.08 h -65.12 V 68.64 H 64.459 V 52.36 H 0 V 16.28 Z" /></g><g
           transform="translate(704.6176,218.692)"
           id="g44"><path
             id="path46"
             style="fill:#000000;fill-opacity:1;fill-rule:nonzero;stroke:none"
             d="m 0,0 h 17.159 v -64.46 c 19.505,9.68 37.841,20.824 55,33.44 L 83.38,-46.42 C 63.284,-60.795 41.212,-73.116 17.159,-83.38 v -83.38 c 0,-2.348 1.282,-4.071 3.851,-5.17 2.564,-1.1 9.274,-1.651 20.13,-1.651 10.852,0 17.452,0.695 19.799,2.091 2.345,1.392 4.071,4.104 5.17,8.14 1.101,4.032 1.943,14.042 2.531,30.03 l 18.04,-5.06 c -0.588,-18.336 -2.018,-30.36 -4.29,-36.08 -2.276,-5.72 -5.577,-9.714 -9.901,-11.991 -4.327,-2.271 -14.777,-3.409 -31.349,-3.409 -17.748,0 -29.04,1.285 -33.88,3.85 -4.84,2.567 -7.26,7.006 -7.26,13.309 z m -50.82,0 h 17.16 v -193.38 h -17.16 v 47.299 c -15.989,-11.439 -33.736,-21.487 -53.241,-30.139 l -6.82,18.92 c 21.705,9.679 41.725,20.24 60.061,31.679 V -67.1 h -57.641 v 17.16 h 57.641 z" /></g></g></g></g></svg>