<?xml version="1.0" encoding="UTF-8" standalone="no"?>
<svg
   xmlns:dc="http://purl.org/dc/elements/1.1/"
   xmlns:cc="http://creativecommons.org/ns#"
   xmlns:rdf="http://www.w3.org/1999/02/22-rdf-syntax-ns#"
   xmlns:svg="http://www.w3.org/2000/svg"
   xmlns="http://www.w3.org/2000/svg"
   viewBox="0 0 1066.6667 1066.6667"
   height="1066.6667"
   width="1066.6667"
   xml:space="preserve"
   id="svg2"
   version="1.1"><metadata
     id="metadata8"><rdf:RDF><cc:Work
         rdf:about=""><dc:format>image/svg+xml</dc:format><dc:type
           rdf:resource="http://purl.org/dc/dcmitype/StillImage" /></cc:Work></rdf:RDF></metadata><defs
     id="defs6"><clipPath
       id="clipPath18"
       clipPathUnits="userSpaceOnUse"><path
         id="path16"
         d="M 0,800 H 800 V 0 H 0 Z" /></clipPath><clipPath
       id="clipPath42"
       clipPathUnits="userSpaceOnUse"><path
         id="path40"
         d="M 0,800 H 800 V 0 H 0 Z" /></clipPath></defs><g
     transform="matrix(1.3333333,0,0,-1.3333333,0,1066.6667)"
     id="g10"><g
       id="g12"><g
         clip-path="url(#clipPath18)"
         id="g14"><text
           id="text22"
           style="font-variant:normal;font-weight:normal;font-stretch:normal;font-size:200px;font-family:Roboto-Black;-inkscape-font-specification:Roboto-Black;writing-mode:lr-tb;fill:#000000;fill-opacity:1;fill-rule:nonzero;stroke:none"
           transform="matrix(1,0,0,-1,37.5269,27.2725)"><tspan
             id="tspan20"
             y="0"
             x="0 140.39999">NE</tspan></text>
</g></g><text
       id="text26"
       style="font-variant:normal;font-weight:normal;font-stretch:normal;font-size:400px;font-family:Roboto-Black;-inkscape-font-specification:Roboto-Black;writing-mode:lr-tb;fill:#000000;fill-opacity:1;fill-rule:nonzero;stroke:none"
       transform="matrix(1,0,0,-1,514.9116,322.5015)"><tspan
         id="tspan24"
         y="0"
         x="0">8</tspan></text>
<g
       transform="translate(26.768,540.073)"
       id="g28"><path
         id="path30"
         style="fill:#000000;fill-opacity:1;fill-rule:nonzero;stroke:none"
         d="M 0,0 206,206 412,0 Z" /></g><g
       transform="translate(438.4566,318.2989)"
       id="g32"><path
         id="path34"
         style="fill:#000000;fill-opacity:1;fill-rule:nonzero;stroke:none"
         d="M 0,0 -206,206 -412,0 Z" /></g><g
       id="g36"><g
         clip-path="url(#clipPath42)"
         id="g38"><path
           id="path44"
           style="fill:#000000;fill-opacity:1;fill-rule:nonzero;stroke:none"
           d="m 479.382,109.762 h 53.239 v 18.04 h -53.239 z m 0,33.439 h 53.239 v 18.04 h -53.239 z m -69.521,-33.439 h 53.24 v 18.04 h -53.24 z m 0,33.439 h 53.24 v 18.04 h -53.24 z m -36.079,65.341 h 89.32 v 15.62 h 16.28 v -15.62 h 91.96 v -15.4 h -91.96 v -16.281 h 70.62 v -82.5 h -55 c 20.092,-18.92 45.832,-33.295 77.22,-43.12 l -10.34,-19.579 c -33.736,13.199 -61.236,32.34 -82.5,57.42 v -62.7 h -16.28 v 60.28 c -20.096,-23.469 -45.908,-41.801 -77.44,-55 l -12.761,16.279 c 31.533,12.025 57.053,27.5 76.561,46.42 h -56.76 v 82.5 h 70.4 v 16.281 h -89.32 z" /><g
           transform="translate(705.542,222.4014)"
           id="g46"><path
             id="path48"
             style="fill:#000000;fill-opacity:1;fill-rule:nonzero;stroke:none"
             d="m 0,0 h 17.159 v -64.46 c 19.505,9.681 37.841,20.824 55,33.44 L 83.38,-46.42 C 63.284,-60.795 41.212,-73.115 17.159,-83.38 v -83.38 c 0,-2.347 1.282,-4.07 3.851,-5.17 2.564,-1.099 9.274,-1.65 20.13,-1.65 10.852,0 17.452,0.694 19.799,2.091 2.345,1.391 4.071,4.103 5.17,8.139 1.101,4.033 1.943,14.042 2.531,30.031 l 18.04,-5.061 c -0.588,-18.336 -2.018,-30.359 -4.29,-36.08 -2.276,-5.72 -5.577,-9.714 -9.901,-11.99 -4.327,-2.272 -14.777,-3.409 -31.349,-3.409 -17.748,0 -29.04,1.285 -33.88,3.849 -4.84,2.568 -7.26,7.006 -7.26,13.31 z m -50.82,0 h 17.16 v -193.38 h -17.16 v 47.3 c -15.989,-11.44 -33.736,-21.487 -53.241,-30.14 l -6.82,18.92 c 21.705,9.68 41.725,20.24 60.061,31.68 v 58.52 h -57.641 v 17.161 h 57.641 z" /></g></g></g></g></svg>