<?xml version="1.0" encoding="UTF-8" standalone="no"?>
<svg
   xmlns:dc="http://purl.org/dc/elements/1.1/"
   xmlns:cc="http://creativecommons.org/ns#"
   xmlns:rdf="http://www.w3.org/1999/02/22-rdf-syntax-ns#"
   xmlns:svg="http://www.w3.org/2000/svg"
   xmlns="http://www.w3.org/2000/svg"
   viewBox="0 0 1066.6667 1066.6667"
   height="1066.6667"
   width="1066.6667"
   xml:space="preserve"
   id="svg2"
   version="1.1"><metadata
     id="metadata8"><rdf:RDF><cc:Work
         rdf:about=""><dc:format>image/svg+xml</dc:format><dc:type
           rdf:resource="http://purl.org/dc/dcmitype/StillImage" /></cc:Work></rdf:RDF></metadata><defs
     id="defs6"><clipPath
       id="clipPath18"
       clipPathUnits="userSpaceOnUse"><path
         id="path16"
         d="M 0,800 H 800 V 0 H 0 Z" /></clipPath><clipPath
       id="clipPath42"
       clipPathUnits="userSpaceOnUse"><path
         id="path40"
         d="M 0,800 H 800 V 0 H 0 Z" /></clipPath></defs><g
     transform="matrix(1.3333333,0,0,-1.3333333,0,1066.6667)"
     id="g10"><g
       id="g12"><g
         clip-path="url(#clipPath18)"
         id="g14"><text
           id="text22"
           style="font-variant:normal;font-weight:normal;font-stretch:normal;font-size:200px;font-family:Roboto-Black;-inkscape-font-specification:Roboto-Black;writing-mode:lr-tb;fill:#000000;fill-opacity:1;fill-rule:nonzero;stroke:none"
           transform="matrix(1,0,0,-1,33.6074,23.3301)"><tspan
             id="tspan20"
             y="0"
             x="0 125.2">SE</tspan></text>
</g></g><text
       id="text26"
       style="font-variant:normal;font-weight:normal;font-stretch:normal;font-size:400px;font-family:Roboto-Black;-inkscape-font-specification:Roboto-Black;writing-mode:lr-tb;fill:#000000;fill-opacity:1;fill-rule:nonzero;stroke:none"
       transform="matrix(1,0,0,-1,514.9121,322.5005)"><tspan
         id="tspan24"
         y="0"
         x="0">8</tspan></text>
<g
       transform="translate(437.1805,507.0316)"
       id="g28"><path
         id="path30"
         style="fill:#000000;fill-opacity:1;fill-rule:nonzero;stroke:none"
         d="M 0,0 -206,-206 -412,0 Z" /></g><g
       transform="translate(25.4919,728.8057)"
       id="g32"><path
         id="path34"
         style="fill:#000000;fill-opacity:1;fill-rule:nonzero;stroke:none"
         d="M 0,0 206,-206 412,0 Z" /></g><g
       id="g36"><g
         clip-path="url(#clipPath42)"
         id="g38"><path
           id="path44"
           style="fill:#000000;fill-opacity:1;fill-rule:nonzero;stroke:none"
           d="m 480.289,99.415 h 53.239 v 18.04 h -53.239 z m 0,33.439 h 53.239 v 18.041 H 480.289 Z M 410.768,99.415 h 53.24 v 18.04 h -53.24 z m 0,33.439 h 53.24 v 18.041 h -53.24 z m -36.08,65.341 h 89.321 v 15.62 h 16.28 v -15.62 h 91.96 v -15.4 h -91.96 v -16.28 h 70.62 v -82.5 h -55 c 20.092,-18.92 45.832,-33.296 77.22,-43.121 l -10.34,-19.58 c -33.737,13.201 -61.237,32.34 -82.5,57.42 V 16.035 h -16.28 V 76.314 C 443.913,52.847 418.1,34.515 386.568,21.314 l -12.76,16.281 c 31.533,12.024 57.053,27.5 76.561,46.42 h -56.761 v 82.5 h 70.401 v 16.28 h -89.321 z" /><g
           transform="translate(665.9685,136.3749)"
           id="g46"><path
             id="path48"
             style="fill:#000000;fill-opacity:1;fill-rule:nonzero;stroke:none"
             d="M 0,0 C 7.48,-8.068 13.492,-16.355 18.041,-24.86 H 38.72 c 4.545,8.652 8.505,17.232 11.88,25.74 L 67.981,-3.521 C 64.605,-11.588 60.865,-18.7 56.76,-24.86 H 83.38 V -40.48 H 35.201 v -18.701 h 53.24 V -74.8 h -53.24 v -36.08 H 18.92 V -74.8 H -35.2 v 15.619 h 54.12 v 18.701 h -48.18 v 15.62 H 0 c -3.96,5.719 -8.58,11.144 -13.86,16.28 z m -71.28,56.76 h 90.2 V 77.44 H 36.081 V 56.76 h 90.2 V 40.48 h -90.2 V 19.8 H 113.52 V -97.9 c 0,-6.892 -2.018,-12.21 -6.05,-15.951 -4.035,-3.739 -10.085,-5.609 -18.149,-5.609 -6.896,0 -15.181,0.588 -24.861,1.76 l -4.4,17.16 c 12.612,-1.173 22.072,-1.76 28.381,-1.76 5.72,0 8.579,2.86 8.579,8.579 V 4.4 H -43.78 V -120.34 H -60.06 V 19.8 h 78.98 v 20.68 h -90.2 z" /></g></g></g></g></svg>