<?xml version="1.0" encoding="UTF-8" standalone="no"?>
<svg
   xmlns:dc="http://purl.org/dc/elements/1.1/"
   xmlns:cc="http://creativecommons.org/ns#"
   xmlns:rdf="http://www.w3.org/1999/02/22-rdf-syntax-ns#"
   xmlns:svg="http://www.w3.org/2000/svg"
   xmlns="http://www.w3.org/2000/svg"
   viewBox="0 0 1066.6667 1066.6667"
   height="1066.6667"
   width="1066.6667"
   xml:space="preserve"
   id="svg2"
   version="1.1"><metadata
     id="metadata8"><rdf:RDF><cc:Work
         rdf:about=""><dc:format>image/svg+xml</dc:format><dc:type
           rdf:resource="http://purl.org/dc/dcmitype/StillImage" /></cc:Work></rdf:RDF></metadata><defs
     id="defs6"><clipPath
       id="clipPath22"
       clipPathUnits="userSpaceOnUse"><path
         id="path20"
         d="M 0,800 H 800 V 0 H 0 Z" /></clipPath><clipPath
       id="clipPath38"
       clipPathUnits="userSpaceOnUse"><path
         id="path36"
         d="M 0,800 H 800 V 0 H 0 Z" /></clipPath></defs><g
     transform="matrix(1.3333333,0,0,-1.3333333,0,1066.6667)"
     id="g10"><text
       id="text14"
       style="font-variant:normal;font-weight:normal;font-stretch:normal;font-size:400px;font-family:Roboto-Black;-inkscape-font-specification:Roboto-Black;writing-mode:lr-tb;fill:#000000;fill-opacity:1;fill-rule:nonzero;stroke:none"
       transform="matrix(1,0,0,-1,514.9121,322.5005)"><tspan
         id="tspan12"
         y="0"
         x="0">8</tspan></text>
<g
       id="g16"><g
         clip-path="url(#clipPath22)"
         id="g18"><text
           id="text26"
           style="font-variant:normal;font-weight:normal;font-stretch:normal;font-size:200px;font-family:Roboto-Black;-inkscape-font-specification:Roboto-Black;writing-mode:lr-tb;fill:#000000;fill-opacity:1;fill-rule:nonzero;stroke:none"
           transform="matrix(1,0,0,-1,30.9702,23.3291)"><tspan
             id="tspan24"
             y="0"
             x="0 125.2">SW</tspan></text>
</g></g><g
       transform="translate(438.8542,577.4988)"
       id="g28"><path
         id="path30"
         style="fill:#000000;fill-opacity:1;fill-rule:nonzero;stroke:none"
         d="M 0,0 -206,-206 -412,0 Z" /></g><g
       id="g32"><g
         clip-path="url(#clipPath38)"
         id="g34"><g
           transform="translate(505.8727,138.1326)"
           id="g40"><path
             id="path42"
             style="fill:#000000;fill-opacity:1;fill-rule:nonzero;stroke:none"
             d="m 0,0 v -31.899 c 0,-3.376 1.173,-5.5 3.521,-6.38 2.344,-0.88 8.36,-1.321 18.04,-1.321 4.544,0 9.164,0.292 13.86,0.88 V 0 Z m -17.159,52.36 h -29.92 V 16.28 h 29.92 z M -100.54,-89.319 H 35.421 v 33.439 c -4.548,-0.588 -9.168,-0.88 -13.86,-0.88 -17.161,0 -27.72,1.173 -31.68,3.521 -4.548,3.372 -6.897,9.092 -7.04,17.16 V 0 h -29.92 v -1.76 c 0,-24.495 -12.908,-44.219 -38.721,-59.179 l -10.34,16.28 c 21.265,11.439 31.825,25.739 31.68,42.899 V 0 h -36.08 z M 52.58,16.28 V -122.1 H 35.421 v 16.281 H -100.54 V -122.1 h -17.159 V 16.28 h 53.239 v 36.08 h -65.119 V 68.64 H 64.46 V 52.36 H 0 V 16.28 Z" /></g><g
           transform="translate(665.8131,136.3728)"
           id="g44"><path
             id="path46"
             style="fill:#000000;fill-opacity:1;fill-rule:nonzero;stroke:none"
             d="m 0,0 c 7.48,-8.067 13.492,-16.355 18.04,-24.859 h 20.68 c 4.545,8.651 8.505,17.231 11.88,25.739 l 17.38,-4.4 C 64.604,-11.588 60.864,-18.7 56.76,-24.859 h 26.62 v -15.62 H 35.2 V -59.18 H 88.44 V -74.8 H 35.2 v -36.08 H 18.92 V -74.8 H -35.2 v 15.62 h 54.12 v 18.701 h -48.18 v 15.62 H 0 c -3.96,5.719 -8.58,11.143 -13.86,16.279 z m -71.28,56.76 h 90.2 V 77.44 H 36.08 V 56.76 h 90.2 V 40.48 H 36.08 V 19.8 h 77.44 V -97.899 c 0,-6.893 -2.018,-12.211 -6.05,-15.951 -4.035,-3.74 -10.085,-5.61 -18.15,-5.61 -6.895,0 -15.18,0.588 -24.86,1.76 l -4.4,17.16 c 12.612,-1.172 22.072,-1.76 28.38,-1.76 5.72,0 8.58,2.861 8.58,8.58 V 4.4 H -43.78 V -120.34 H -60.06 V 19.8 h 78.98 v 20.68 h -90.2 z" /></g></g></g></g></svg>