<?xml version="1.0" encoding="UTF-8" standalone="no"?>
<svg
   xmlns:dc="http://purl.org/dc/elements/1.1/"
   xmlns:cc="http://creativecommons.org/ns#"
   xmlns:rdf="http://www.w3.org/1999/02/22-rdf-syntax-ns#"
   xmlns:svg="http://www.w3.org/2000/svg"
   xmlns="http://www.w3.org/2000/svg"
   viewBox="0 0 1066.6667 1066.6667"
   height="1066.6667"
   width="1066.6667"
   xml:space="preserve"
   id="svg2"
   version="1.1"><metadata
     id="metadata8"><rdf:RDF><cc:Work
         rdf:about=""><dc:format>image/svg+xml</dc:format><dc:type
           rdf:resource="http://purl.org/dc/dcmitype/StillImage" /></cc:Work></rdf:RDF></metadata><defs
     id="defs6"><clipPath
       id="clipPath18"
       clipPathUnits="userSpaceOnUse"><path
         id="path16"
         d="M 0,800 H 800 V 0 H 0 Z" /></clipPath></defs><g
     transform="matrix(1.3333333,0,0,-1.3333333,0,1066.6667)"
     id="g10"><g
       id="g12"><g
         clip-path="url(#clipPath18)"
         id="g14"><g
           transform="translate(647.6754,455.5224)"
           id="g20"><path
             id="path22"
             style="fill:#ec1618;fill-opacity:1;fill-rule:nonzero;stroke:none"
             d="m 0,0 c -15.007,0.078 -27.805,-1.295 -39.386,5.682 -3.374,2.032 -5.658,-0.512 -7.673,-2.747 -31.49,-34.915 -110.023,-45.092 -151.351,-17.892 -3.552,2.338 -6.491,3.04 -10.688,0.162 -31.738,-21.768 -67.88,-25.815 -104.925,-24.229 -34.628,1.482 -66.714,12.693 -95.831,31.023 -12.503,7.871 -22.807,19.23 -34.143,28.966 -2.548,2.188 -4.135,6.088 -9.012,3.27 -22.946,-13.257 -47.97,-11.109 -72.926,-9.425 -28.472,1.92 -52.469,12.572 -71.716,34.249 -17.993,20.264 -23.016,52.248 2.908,74.065 18.619,15.669 39.101,23.497 63.005,23.053 5.831,-0.109 8.76,1.885 11.374,7.211 22.94,46.759 59.021,78.845 109.808,91.256 25.082,6.129 51.195,3.198 75.423,-7.108 9.998,-4.254 16.035,-2.042 22.972,5.771 36.457,41.056 82.723,55.649 136.61,50.007 19.265,-2.017 38.334,-4.033 56.536,-11.137 16.639,-6.494 30.058,-17.157 40.175,-31.68 4.674,-6.71 10.078,-9.801 18.265,-9.249 29.244,1.973 56.862,-3.875 82.532,-18.204 26.396,-14.734 44.971,-35.089 47.902,-66.755 0.516,-5.574 1.88,-9.714 9.038,-12.047 56.209,-18.318 61.687,-65.159 27.965,-103.26 C 88.722,20.486 62.834,11.762 37.089,4.247 24.217,0.489 11.032,-1.12 0,0" /></g><g
           transform="translate(324.2594,309.3094)"
           id="g24"><path
             id="path26"
             style="fill:#ec1618;fill-opacity:1;fill-rule:nonzero;stroke:none"
             d="m 0,0 c 7.578,-40.76 6.253,-76.229 -9.922,-110.295 -6.812,-14.348 -14.751,-26.699 -31.487,-31.649 -17.508,-5.177 -34.674,9.337 -32.694,27.704 1.995,18.505 10.266,33.527 20.876,48.277 C -37.341,-43.881 -15.14,-27.305 0,0" /></g><g
           transform="translate(535.4766,303.2461)"
           id="g28"><path
             id="path30"
             style="fill:#ec1618;fill-opacity:1;fill-rule:nonzero;stroke:none"
             d="m 0,0 c 7.554,-40.748 6.255,-76.221 -9.95,-110.282 -6.824,-14.344 -14.785,-26.678 -31.524,-31.613 -17.477,-5.153 -34.613,9.404 -32.633,27.773 1.995,18.51 10.298,33.519 20.903,48.264 C -37.325,-43.78 -15.154,-27.194 0,0" /></g><g
           transform="translate(230.5821,395.0456)"
           id="g32"><path
             id="path34"
             style="fill:#ec1618;fill-opacity:1;fill-rule:nonzero;stroke:none"
             d="m 0,0 c 7.501,-40.768 6.279,-76.256 -10.008,-110.3 -6.853,-14.322 -14.814,-26.683 -31.601,-31.539 -16.735,-4.842 -34.51,9.296 -32.726,26.536 1.956,18.897 10.135,34.509 21.149,49.651 C -37.2,-43.674 -15.144,-27.032 0,0" /></g><g
           transform="translate(441.0681,383.5646)"
           id="g36"><path
             id="path38"
             style="fill:#ec1618;fill-opacity:1;fill-rule:nonzero;stroke:none"
             d="m 0,0 c 8.402,-36.993 6.967,-72.398 -9.08,-106.452 -6.764,-14.353 -14.595,-26.797 -31.342,-31.788 -17.559,-5.233 -34.859,9.145 -32.937,27.437 2,19.03 10.747,34.331 21.616,49.46 C -36.123,-39.603 -13.768,-23.724 0,0" /></g><g
           transform="translate(652.6125,381.1068)"
           id="g40"><path
             id="path42"
             style="fill:#ec1618;fill-opacity:1;fill-rule:nonzero;stroke:none"
             d="m 0,0 c 9.09,-42.893 5.703,-80.33 -12.258,-115.931 -5.997,-11.886 -14.159,-21.504 -28.144,-25.733 -18.37,-5.556 -34.996,8.898 -33.324,28.205 2.373,27.398 19.445,46.224 35.531,65.597 C -25.952,-33.117 -11.022,-20.631 0,0" /></g><g
           transform="translate(194.97,229.5764)"
           id="g44"><path
             id="path46"
             style="fill:#ec1618;fill-opacity:1;fill-rule:nonzero;stroke:none"
             d="m 0,0 c 7.181,-38.869 5.89,-74.336 -10.315,-108.407 -7.066,-14.857 -15.489,-27.398 -32.916,-32.018 -15.134,-4.012 -33.092,9.863 -31.658,25.516 1.769,19.314 9.109,36.079 21.478,50.95 8.706,10.467 16.19,22.045 26.613,30.938 C -16.387,-24.14 -10.52,-11.604 0,0" /></g><g
           transform="translate(406.6278,223.4764)"
           id="g48"><path
             id="path50"
             style="fill:#ec1618;fill-opacity:1;fill-rule:nonzero;stroke:none"
             d="m 0,0 c 7.554,-40.748 6.255,-76.221 -9.95,-110.282 -6.824,-14.344 -14.785,-26.678 -31.524,-31.613 -17.477,-5.154 -34.613,9.404 -32.633,27.773 1.995,18.51 10.291,33.52 20.902,48.265 C -37.321,-43.783 -15.154,-27.194 0,0" /></g><g
           transform="translate(618.2756,217.4307)"
           id="g52"><path
             id="path54"
             style="fill:#ec1618;fill-opacity:1;fill-rule:nonzero;stroke:none"
             d="m 0,0 c 9.09,-42.893 5.703,-80.33 -12.258,-115.931 -5.997,-11.886 -14.159,-21.504 -28.144,-25.733 -18.371,-5.555 -34.996,8.898 -33.324,28.205 2.372,27.398 19.445,46.224 35.531,65.596 C -25.952,-33.117 -11.022,-20.631 0,0" /></g></g></g></g></svg>