<?xml version="1.0" encoding="UTF-8" standalone="no"?>
<svg
   xmlns:dc="http://purl.org/dc/elements/1.1/"
   xmlns:cc="http://creativecommons.org/ns#"
   xmlns:rdf="http://www.w3.org/1999/02/22-rdf-syntax-ns#"
   xmlns:svg="http://www.w3.org/2000/svg"
   xmlns="http://www.w3.org/2000/svg"
   viewBox="0 0 1066.6667 1066.6667"
   height="1066.6667"
   width="1066.6667"
   xml:space="preserve"
   id="svg2"
   version="1.1"><metadata
     id="metadata8"><rdf:RDF><cc:Work
         rdf:about=""><dc:format>image/svg+xml</dc:format><dc:type
           rdf:resource="http://purl.org/dc/dcmitype/StillImage" /></cc:Work></rdf:RDF></metadata><defs
     id="defs6"><clipPath
       id="clipPath22"
       clipPathUnits="userSpaceOnUse"><path
         id="path20"
         d="M 0,800 H 800 V 0 H 0 Z" /></clipPath></defs><g
     transform="matrix(1.3333333,0,0,-1.3333333,0,1066.6667)"
     id="g10"><g
       transform="translate(557.5,364.3579)"
       id="g12"><path
         id="path14"
         style="fill:#ec1618;fill-opacity:1;fill-rule:nonzero;stroke:none"
         d="m 0,0 -105.755,23.543 40.998,-272.901 -185.514,82.806 -185.052,-82.806 46.817,272.901 L -500,0 -250.271,320.642 Z" /></g><g
       id="g16"><g
         clip-path="url(#clipPath22)"
         id="g18"><g
           transform="translate(679,248.6271)"
           id="g24"><path
             id="path26"
             style="fill:#ec1618;fill-opacity:1;fill-rule:nonzero;stroke:none"
             d="M 0,0 V 347.373 H -32 V 0 c -24,-6.886 -40.223,-28.301 -40.223,-53.668 0,-30.928 24.96,-56 55.888,-56 30.928,0 56.168,25.072 56.168,56 C 39.833,-28.301 23,-6.886 0,0" /></g><g
           transform="translate(662.5538,130.9798)"
           id="g28"><path
             id="path30"
             style="fill:#ec1618;fill-opacity:1;fill-rule:nonzero;stroke:none"
             d="m 0,0 c -35.346,0 -63.777,28.654 -63.777,64 0,26.856 16.223,49.834 40.223,59.33 v 390.71 c 0,13.255 10.745,24 24,24 13.255,0 24,-10.745 24,-24 V 123.33 C 47.446,113.834 64.223,90.856 64.223,64 64.223,28.654 35.346,0 0,0 M 40.446,133.271 V 514.04 c 0,22.092 -17.908,40 -40,40 -22.091,0 -40,-17.908 -40,-40 V 133.271 c -24,-13.834 -40.223,-39.665 -40.223,-69.271 0,-44.183 35.706,-80 79.889,-80 44.182,0 80.167,35.817 80.167,80 0,29.606 -16.833,55.437 -39.833,69.271" /></g></g></g></g></svg>