<?xml version="1.0" encoding="UTF-8" standalone="no"?>
<svg
   xmlns:dc="http://purl.org/dc/elements/1.1/"
   xmlns:cc="http://creativecommons.org/ns#"
   xmlns:rdf="http://www.w3.org/1999/02/22-rdf-syntax-ns#"
   xmlns:svg="http://www.w3.org/2000/svg"
   xmlns="http://www.w3.org/2000/svg"
   viewBox="0 0 199.97467 199.97467"
   height="199.97467"
   width="199.97467"
   xml:space="preserve"
   id="svg2"
   version="1.1"><metadata
     id="metadata8"><rdf:RDF><cc:Work
         rdf:about=""><dc:format>image/svg+xml</dc:format><dc:type
           rdf:resource="http://purl.org/dc/dcmitype/StillImage" /></cc:Work></rdf:RDF></metadata><defs
     id="defs6"><clipPath
       id="clipPath18"
       clipPathUnits="userSpaceOnUse"><path
         id="path16"
         d="M 0,149.981 H 149.981 V 0 H 0 Z" /></clipPath><clipPath
       id="clipPath30"
       clipPathUnits="userSpaceOnUse"><path
         id="path28"
         d="M 54.2023,141.991 H 138.027 V 89.7401 H 54.2023 Z" /></clipPath><clipPath
       id="clipPath46"
       clipPathUnits="userSpaceOnUse"><path
         id="path44"
         d="M 22.0649,114.124 H 71.0113 V 84.4352 H 22.0649 Z" /></clipPath></defs><g
     transform="matrix(1.3333333,0,0,-1.3333333,0,199.97467)"
     id="g10"><g
       id="g12"><g
         clip-path="url(#clipPath18)"
         id="g14"><g
           transform="translate(13.5961,85.697)"
           id="g20"><path
             id="path22"
             style="fill:#ec1618;fill-opacity:1;fill-rule:nonzero;stroke:none"
             d="m 0,0 c 13.787,-13.697 27.069,-26.89 40.348,-40.086 5.622,-5.586 10.976,-11.458 17.402,-16.182 6.284,-4.621 13.013,-8.377 20.761,-9.78 11.019,-1.996 20.273,1.158 27.04,10.309 6.967,9.425 7.835,19.588 2.621,30.047 -3.491,7.001 -11.953,11.217 -19.292,10.122 -7.778,-1.161 -13.577,-6.364 -15.218,-13.804 -0.834,-3.78 -0.627,-7.536 1.53,-10.867 1.555,-2.401 3.799,-4.07 6.851,-3.212 2.998,0.843 4.271,3.142 4.146,6.211 -0.043,1.041 -0.155,2.08 -0.236,3.119 -0.279,3.615 1.746,5.521 4.988,6.023 3.549,0.549 6.032,-1.075 7.143,-4.588 2.907,-9.189 -2.902,-19.025 -12.463,-21.098 -16.567,-3.592 -28.682,10.894 -23.859,28.656 2.928,10.785 10.72,16.774 21.001,19.379 12.182,3.087 23.234,0.457 32.163,-8.802 11.545,-11.971 11.999,-34.057 1.119,-47.216 C 103.59,-76.832 85.853,-81.546 67.593,-74.503 56.308,-70.15 46.749,-63.095 38.252,-54.651 25.819,-42.296 13.592,-29.733 1.312,-17.225 -2.249,-13.598 -2.47,-10.533 0,0" /></g><g
           id="g24"><g
             id="g26" /><g
             id="g38"><g
               style="opacity:0.71000701"
               id="g36"
               clip-path="url(#clipPath30)"><g
                 id="g34"
                 transform="translate(54.2023,139.7164)"><path
                   id="path32"
                   style="fill:#ec1618;fill-opacity:1;fill-rule:nonzero;stroke:none"
                   d="m 0,0 c 3.56,3.249 5.977,2.864 8.925,-0.182 11.029,-11.394 22.32,-22.534 33.529,-33.753 4.645,-4.649 9.877,-8.413 16.446,-9.747 6.084,-1.236 11.178,0.721 14.908,5.673 3.687,4.897 4.352,10.33 1.78,15.93 -2.351,5.118 -8.024,7.603 -13.041,5.742 -4.688,-1.74 -6.773,-5.286 -6.375,-10.275 0.184,-2.302 1.223,-4.25 3.557,-4.532 2.743,-0.33 3.516,1.692 3.389,4.072 -0.13,2.435 0.613,4.292 3.363,4.105 3.046,-0.207 3.536,-2.753 3.446,-5.063 -0.199,-5.102 -3.192,-7.979 -8.097,-8.85 -5.181,-0.919 -10.21,2.153 -11.758,7.027 -2.598,8.181 1.47,15.996 9.834,18.889 9.49,3.283 19.691,-1.555 22.866,-10.844 5.072,-14.838 -8.998,-30.783 -24.57,-27.807 -6.964,1.331 -13.067,4.628 -18.046,9.497 C 26.749,-27.008 13.604,-13.628 0,0" /></g></g></g></g><g
           id="g40"><g
             id="g42" /><g
             id="g54"><g
               style="opacity:0.5"
               id="g52"
               clip-path="url(#clipPath46)"><g
                 id="g50"
                 transform="translate(71.0095,101.3051)"><path
                   id="path48"
                   style="fill:#ec1618;fill-opacity:1;fill-rule:nonzero;stroke:none"
                   d="m 0,0 c 0.165,-12.161 -10.927,-19.757 -22.231,-15.827 -7.822,2.719 -13.039,8.776 -18.623,14.371 -2.357,2.36 -4.645,4.79 -7.023,7.128 -1.546,1.521 -1.32,3.028 0.081,4.32 1.755,1.617 2.539,-0.382 3.428,-1.269 4.721,-4.713 9.339,-9.53 14.051,-14.252 3.286,-3.292 7.018,-5.841 11.686,-6.858 4.278,-0.933 7.853,0.229 10.74,3.396 3.07,3.369 3.899,7.441 2.419,11.654 -1.468,4.177 -4.644,6.542 -9.225,5.616 -3.96,-0.8 -6.007,-3.553 -5.823,-7.691 0.081,-1.812 0.899,-3.357 2.839,-3.57 1.854,-0.204 2.504,1.205 2.529,2.816 0.032,1.948 0.644,3.505 2.854,3.014 2.073,-0.46 2.048,-2.445 1.901,-4.11 -0.36,-4.069 -3.028,-5.848 -6.762,-5.902 -4.194,-0.061 -7.201,1.792 -8.041,6.261 -1.249,6.641 2.711,12.085 9.844,13.494 C -8.636,13.918 -1.718,9.307 -0.334,2.548 -0.125,1.531 -0.061,0.485 0,0" /></g></g></g></g></g></g></g></svg>