<?xml version="1.0" encoding="UTF-8" standalone="no"?>
<svg
   xmlns:dc="http://purl.org/dc/elements/1.1/"
   xmlns:cc="http://creativecommons.org/ns#"
   xmlns:rdf="http://www.w3.org/1999/02/22-rdf-syntax-ns#"
   xmlns:svg="http://www.w3.org/2000/svg"
   xmlns="http://www.w3.org/2000/svg"
   viewBox="0 0 1066.6667 1066.6667"
   height="1066.6667"
   width="1066.6667"
   xml:space="preserve"
   id="svg2"
   version="1.1"><metadata
     id="metadata8"><rdf:RDF><cc:Work
         rdf:about=""><dc:format>image/svg+xml</dc:format><dc:type
           rdf:resource="http://purl.org/dc/dcmitype/StillImage" /></cc:Work></rdf:RDF></metadata><defs
     id="defs6"><clipPath
       id="clipPath26"
       clipPathUnits="userSpaceOnUse"><path
         id="path24"
         d="M 0,800 H 800 V 0 H 0 Z" /></clipPath><clipPath
       id="clipPath34"
       clipPathUnits="userSpaceOnUse"><path
         id="path32"
         d="M 0,759.206 H 780 V 0 H 0 Z" /></clipPath></defs><g
     transform="matrix(1.3333333,0,0,-1.3333333,0,1066.6667)"
     id="g10"><path
       id="path12"
       style="fill:#7f6633;fill-opacity:1;fill-rule:nonzero;stroke:none"
       d="M 525,0 H 725.001 V 150 H 525 Z" /><g
       transform="translate(475,149.1516)"
       id="g14"><path
         id="path16"
         style="fill:#ffa300;fill-opacity:1;fill-rule:nonzero;stroke:none"
         d="M 0,0 H 300 L 150,125.865 Z" /></g><path
       id="path18"
       style="fill:#b78834;fill-opacity:1;fill-rule:nonzero;stroke:none"
       d="m 650,0 h 50 v 100 h -50 z" /><g
       id="g20"><g
         clip-path="url(#clipPath26)"
         id="g22"><g
           id="g28"><g
             id="g30" /><g
             id="g42"><g
               style="opacity:0.71000701"
               id="g40"
               clip-path="url(#clipPath34)"><g
                 id="g38"
                 transform="translate(524.0421,474.9147)"><path
                   id="path36"
                   style="fill:#0098cb;fill-opacity:1;fill-rule:nonzero;stroke:none"
                   d="m 0,0 c -15.248,0 -25.819,5.489 -35.985,13.113 0,-21.245 61.804,-65.158 132.96,-65.158 4.492,0 158.983,-16.265 158.983,113.849 0,78.085 -155.323,222.487 -314.98,222.487 -138.399,0 -259.363,-45.104 -366.404,-128.041 -43.637,-33.809 -74.532,-70.859 -98.586,-123.62 0,0 -0.067,-481.658 0,-501.039 l -0.03,-6.506 h 693.71 l -23.765,6.506 h 0.271 c -214.382,57.738 -294.382,192.731 -312.374,357.914 -6.161,56.565 10.085,118.529 19.416,117.102 0,61.804 108.766,103.786 153.086,103.786 50.826,0 53.834,-38.758 54.892,-48.589 C 61.194,32.732 25.194,0 0,0" /></g></g></g></g><g
           transform="translate(394.5059,369.8693)"
           id="g44"><path
             id="path46"
             style="fill:#00cbfe;fill-opacity:1;fill-rule:nonzero;stroke:none"
             d="m 0,0 c -24.394,20.256 -147.595,1.212 -147.595,-119.143 0,-63.837 35.29,-136.034 62.753,-160.474 44.161,-39.299 102.464,-78.62 165.352,-90.005 3.075,-0.557 -475.016,0 -475.016,0 0,0 1.454,258.437 1.853,377.985 2.041,4.862 4.514,9.511 6.931,14.2 56.496,72.629 135.742,100.423 222.82,110.438 17.004,1.955 34.24,2.821 51.497,2.821 94.872,0 212.911,-59.297 253.719,-108.587 5.383,-6.501 10.756,-13.569 14.638,-21.686 70.694,-147.834 -227.596,-122.777 -227.596,-56.577 0,0 22.821,-7.938 39.474,-7.938 11.466,0 75.086,22.499 31.17,58.966" /></g></g></g></g></svg>