<?xml version="1.0" encoding="UTF-8" standalone="no"?>
<svg
   xmlns:dc="http://purl.org/dc/elements/1.1/"
   xmlns:cc="http://creativecommons.org/ns#"
   xmlns:rdf="http://www.w3.org/1999/02/22-rdf-syntax-ns#"
   xmlns:svg="http://www.w3.org/2000/svg"
   xmlns="http://www.w3.org/2000/svg"
   viewBox="0 0 1066.6667 1066.6667"
   height="1066.6667"
   width="1066.6667"
   xml:space="preserve"
   id="svg2"
   version="1.1"><metadata
     id="metadata8"><rdf:RDF><cc:Work
         rdf:about=""><dc:format>image/svg+xml</dc:format><dc:type
           rdf:resource="http://purl.org/dc/dcmitype/StillImage" /></cc:Work></rdf:RDF></metadata><defs
     id="defs6"><clipPath
       id="clipPath18"
       clipPathUnits="userSpaceOnUse"><path
         id="path16"
         d="M 0,800 H 800 V 0 H 0 Z" /></clipPath></defs><g
     transform="matrix(1.3333333,0,0,-1.3333333,0,1066.6667)"
     id="g10"><g
       id="g12"><g
         clip-path="url(#clipPath18)"
         id="g14"><g
           transform="translate(346.9408,653.7678)"
           id="g20"><path
             id="path22"
             style="fill:#ec1618;fill-opacity:1;fill-rule:nonzero;stroke:none"
             d="m 0,0 c 6.152,-2.128 9.575,-6.446 12.776,-10.736 8.809,-11.807 14.891,-25.178 18.988,-39.127 6.653,-22.647 12.879,-45.485 17.749,-68.567 3.477,-16.475 5.074,-33.435 6.317,-50.267 0.985,-13.332 0.92,-26.86 -0.167,-40.18 -0.587,-7.193 -4.298,-14.131 -6.597,-21.185 -4.168,-12.79 -7.274,-25.778 -7.814,-39.305 -0.864,-21.64 5.426,-41.514 16.75,-59.415 11.049,-17.466 22.921,-34.585 36.089,-50.484 10.839,-13.088 15.383,-27.821 17.992,-43.809 3.201,-19.61 1.129,-38.67 -6.096,-57.151 -6.659,-17.034 -16.817,-31.963 -28.159,-46.15 -10.795,-13.502 -21.65,-26.957 -32.423,-40.477 -1.618,-2.031 -2.933,-4.302 -4.876,-7.185 -0.509,1.215 -1.44,2.31 -1.245,3.141 2.831,12.058 5.604,24.136 8.813,36.096 3.981,14.836 7.2,29.799 4.729,45.161 -2.186,13.589 -10.225,23.727 -22.315,29.852 -9.339,4.732 -19.217,8.66 -29.222,11.759 -18.465,5.72 -33.085,16.386 -43.964,32.108 -10.488,15.156 -16.019,32.12 -18.634,50.426 -3.005,21.042 -1.617,41.651 1.981,62.428 6.456,37.275 21.176,71.29 39.091,104.26 3.608,6.641 5.2,14.539 6.842,22.05 3.109,14.222 5.954,28.526 8.211,42.906 2.237,14.249 4.391,28.591 5.182,42.97 1.14,20.702 1.074,41.473 1.392,62.217 0.09,5.817 -0.21,11.644 -0.462,17.46 C 0.781,-7.811 0.377,-4.428 0,0" /></g><g
           transform="translate(210.1863,443.0223)"
           id="g24"><path
             id="path26"
             style="fill:#ec1618;fill-opacity:1;fill-rule:nonzero;stroke:none"
             d="m 0,0 c 6.453,-14.613 13.47,-29.009 19.183,-43.906 4.683,-12.211 8.033,-24.955 11.584,-37.573 6.079,-21.602 7.456,-43.798 7.003,-66.078 -0.232,-11.427 -1.39,-22.869 -2.756,-34.23 -1.139,-9.465 1.469,-18.219 4.613,-26.648 11.898,-31.893 35.366,-52.073 66.761,-63.561 10.012,-3.664 20.607,-5.785 30.508,-9.693 14.836,-5.856 20.619,-18.393 21.779,-33.408 1.168,-15.127 -2.894,-29.591 -6.334,-44.096 -0.36,-1.519 -1.412,-2.874 -2.891,-5.769 -1.529,4.85 -2.604,8.289 -3.698,11.721 -2.246,7.046 -3.936,14.334 -6.87,21.081 -6.477,14.895 -19.47,19.406 -34.395,19.485 -10.109,0.053 -20.219,-1.156 -30.335,-1.28 -28.628,-0.35 -54.322,7.958 -76.208,26.826 -13.404,11.556 -22.849,25.7 -28.417,42.621 -5.925,18.008 -6.867,36.037 -4.131,54.809 4.198,28.813 15.296,54.831 30.015,79.455 9.429,15.776 12.878,32.451 10.66,50.459 -2.023,16.416 -4.229,32.81 -6.432,49.203 -0.239,1.78 -1.19,3.462 -1.455,5.242 -0.257,1.729 -0.056,3.526 -0.056,5.293 C -1.248,-0.031 -0.624,-0.016 0,0" /></g><g
           transform="translate(529.1495,496.2607)"
           id="g28"><path
             id="path30"
             style="fill:#ec1618;fill-opacity:1;fill-rule:nonzero;stroke:none"
             d="m 0,0 c 0.178,-4.483 0.601,-8.972 0.494,-13.448 -0.548,-23.033 -7.325,-44.25 -18.021,-64.569 -8.46,-16.07 -9.75,-33.499 -7.375,-51.407 3.335,-25.139 15.233,-46.115 30.019,-66.118 13.525,-18.296 23.243,-38.56 26.063,-61.531 2.65,-21.577 -3.04,-41.152 -14.791,-59.132 -14.269,-21.833 -33.831,-38.255 -55.388,-52.228 -21.31,-13.812 -43.298,-26.576 -64.974,-39.825 -2.796,-1.71 -5.502,-3.568 -8.249,-5.357 -0.311,0.392 -0.621,0.784 -0.932,1.177 6.311,6.201 12.688,12.336 18.921,18.615 21.05,21.203 40.145,43.952 54.335,70.423 7.327,13.669 13.19,27.848 13.634,43.767 0.265,9.502 -1.454,18.368 -6.03,26.732 -9.277,16.956 -19.013,33.693 -27.5,51.039 -9.004,18.403 -14.532,38.122 -14.553,58.718 -0.019,18.514 4.631,36.292 14.769,51.985 6.731,10.418 13.812,20.901 22.367,29.784 14.89,15.46 24.737,33.522 32.019,53.338 1.01,2.747 2.204,5.427 3.312,8.138 C -1.253,0.067 -0.627,0.034 0,0" /></g><g
           transform="translate(583.1396,222.5977)"
           id="g32"><path
             id="path34"
             style="fill:#ec1618;fill-opacity:1;fill-rule:nonzero;stroke:none"
             d="m 0,0 c -0.5,3.227 -1.001,4.985 -1.008,6.746 -0.045,12.139 3.229,23.654 7.337,34.879 6.911,18.888 7.119,37.594 -0.074,56.409 -6.35,16.611 -9.501,33.905 -9.354,51.628 0.183,22.137 5.348,43.381 13.364,63.934 5.169,13.252 10.601,26.402 15.89,39.607 0.774,1.933 1.406,3.923 2.582,7.231 0.921,-2.338 2.107,-3.81 1.773,-4.733 -5.533,-15.298 -3.933,-31.018 -2.938,-46.689 1.446,-22.778 6.135,-44.982 12.28,-66.897 C 45.072,123.5 42.547,105.266 37.637,87.079 30.544,60.802 18.058,36.857 5.767,12.812 4.307,9.957 3.702,6.674 2.584,3.631 2.283,2.812 1.555,2.149 0,0" /></g><g
           transform="translate(269.106,678.4818)"
           id="g36"><path
             id="path38"
             style="fill:#ec1618;fill-opacity:1;fill-rule:nonzero;stroke:none"
             d="m 0,0 c 0.53,-0.345 1.392,-0.584 1.541,-1.05 3.581,-11.261 6.836,-22.632 10.668,-33.806 4.985,-14.536 6.352,-29.487 5.382,-44.628 -0.285,-4.444 -2.705,-8.768 -4.246,-13.112 -6.934,-19.537 -8.157,-39.629 -7.039,-60.2 1.118,-20.57 1.096,-41.205 1.311,-61.814 0.028,-2.679 -1.181,-5.534 -2.387,-8.032 -3.495,-7.237 -10.868,-7.969 -16.054,-1.52 -5.66,7.039 -9.501,15.027 -10.355,24.124 -0.866,9.222 -1.832,18.472 -1.933,27.719 -0.16,14.685 2.895,28.989 7.548,42.826 4.666,13.876 10.475,27.366 15.204,41.222 5.695,16.687 7.609,33.959 5.519,51.504 -1.106,9.289 -2.851,18.506 -4.469,27.726 -0.51,2.903 -1.547,5.712 -2.343,8.564 C -1.102,-0.318 -0.551,-0.159 0,0" /></g><g
           transform="translate(470.6961,721.9393)"
           id="g40"><path
             id="path42"
             style="fill:#ec1618;fill-opacity:1;fill-rule:nonzero;stroke:none"
             d="m 0,0 c -0.191,-2.088 -0.056,-2.933 -0.357,-3.574 -8.131,-17.289 -11.702,-35.576 -11.153,-54.56 0.466,-16.16 3.88,-31.957 9.114,-47.172 6.138,-17.847 9.944,-35.878 6.468,-54.62 -1.799,-9.702 -5.053,-19.16 -8.023,-28.61 -2.626,-8.358 -5.769,-16.553 -9.597,-24.961 -0.09,1.161 -0.446,2.374 -0.23,3.475 2.273,11.558 5.541,23.001 6.781,34.662 2.36,22.194 -3.116,43.204 -10.434,64.158 -10.094,28.904 -12.333,58.34 0.79,87.262 C -12.76,-15.386 -7.556,-7.625 0,0" /></g><g
           transform="translate(568.1382,479.3922)"
           id="g44"><path
             id="path46"
             style="fill:#ec1618;fill-opacity:1;fill-rule:nonzero;stroke:none"
             d="m 0,0 c 0.606,4.619 1.887,9.272 1.664,13.851 -0.366,7.524 -1.326,15.074 -2.74,22.479 -1.638,8.574 -4.94,16.904 -5.887,25.52 -1.282,11.665 1.757,22.668 9.503,31.945 0.644,0.771 1.567,1.31 3.321,2.74 C 4.178,91.127 2.663,87.017 1.628,82.79 -1.914,68.331 1.453,54.412 6.075,40.913 10.049,29.309 7.976,18.426 4.627,7.38 3.825,4.735 2.989,2.1 2.169,-0.539 1.446,-0.359 0.723,-0.18 0,0" /></g></g></g></g></svg>