<?xml version="1.0" encoding="UTF-8" standalone="no"?>
<svg
   xmlns:dc="http://purl.org/dc/elements/1.1/"
   xmlns:cc="http://creativecommons.org/ns#"
   xmlns:rdf="http://www.w3.org/1999/02/22-rdf-syntax-ns#"
   xmlns:svg="http://www.w3.org/2000/svg"
   xmlns="http://www.w3.org/2000/svg"
   viewBox="0 0 199.97467 199.97467"
   height="199.97467"
   width="199.97467"
   xml:space="preserve"
   id="svg2"
   version="1.1"><metadata
     id="metadata8"><rdf:RDF><cc:Work
         rdf:about=""><dc:format>image/svg+xml</dc:format><dc:type
           rdf:resource="http://purl.org/dc/dcmitype/StillImage" /></cc:Work></rdf:RDF></metadata><defs
     id="defs6"><clipPath
       id="clipPath18"
       clipPathUnits="userSpaceOnUse"><path
         id="path16"
         d="M 0,149.981 H 149.981 V 0 H 0 Z" /></clipPath></defs><g
     transform="matrix(1.3333333,0,0,-1.3333333,0,199.97467)"
     id="g10"><g
       id="g12"><g
         clip-path="url(#clipPath18)"
         id="g14"><g
           transform="translate(9.0381,45.9541)"
           id="g20"><path
             id="path22"
             style="fill:#659afe;fill-opacity:1;fill-rule:nonzero;stroke:none"
             d="M 0,0 C 7.452,5.072 16.124,6.4 24.692,8.039 38.874,10.753 52.808,8.116 66.705,5.822 81.321,3.41 94.795,5.408 107.115,15.345 103.971,9.581 97.458,5.252 89.621,2.973 77.743,-0.48 65.84,0.997 54.109,3.221 37.053,6.454 20.428,4.747 3.846,0.565 2.582,0.246 1.241,0.231 -0.064,0.075 -0.064,0.075 0,0 0,0" /></g><g
           transform="translate(32.8544,36.5261)"
           id="g24"><path
             id="path26"
             style="fill:#2e77fe;fill-opacity:1;fill-rule:nonzero;stroke:none"
             d="m 0,0 c 10.106,5.081 20.521,7.397 31.314,8.484 13.098,1.32 25.846,-1.397 38.635,-3.32 12.813,-1.926 24.446,0.462 35.055,7.887 0.651,0.455 1.358,0.831 2.326,1.418 C 103.877,7.339 92.059,2.502 84.363,1.424 74.655,0.065 65.051,1.049 55.585,2.785 38.035,6.005 20.838,4.669 3.744,0.145 2.946,-0.066 2.151,-0.307 1.34,-0.451 1.082,-0.496 0.776,-0.273 0,0" /></g><g
           transform="translate(96.6929,62.9279)"
           id="g28"><path
             id="path30"
             style="fill:#0457fd;fill-opacity:1;fill-rule:nonzero;stroke:none"
             d="m 0,0 c -10.812,0.29 -21.188,3.426 -31.874,4.437 -2.626,0.166 -5.255,0.115 -7.883,0.053 -6.78,-0.028 -32.686,-3.538 -40.936,-10.437 17.029,4.881 34.81,6.484 51.721,4.08 6.403,-0.91 12.793,-2.026 19.229,-2.575 13.609,-1.161 32.988,5.62 38.05,14.527 C 20.463,3.21 7.18,-0.193 0,0" /></g><g
           transform="translate(140.0203,93.0246)"
           id="g32"><path
             id="path34"
             style="fill:#a8f7ce;fill-opacity:1;fill-rule:nonzero;stroke:none"
             d="m 0,0 -25.997,21.088 -73.21,-8.226 65.133,-0.964 z" /></g><g
           transform="translate(73,104.9812)"
           id="g36"><path
             id="path38"
             style="fill:#a8f7ce;fill-opacity:1;fill-rule:nonzero;stroke:none"
             d="m 0,0 18,-4 -35,-30 -19,4.009 5,4.991 h -17 v 7 l 25.984,-0.969 5.016,5.969 -18,2 8.5,8 19.5,-4 z" /></g><g
           transform="translate(96.7916,99.6942)"
           id="g40"><path
             id="path42"
             style="fill:#a8f7ce;fill-opacity:1;fill-rule:nonzero;stroke:none"
             d="m 0,0 17.936,-3.986 -6.728,-6.727 h 20.985 l -0.985,-7.011 -28,1.011 c 0,0 -8.582,-5.665 -11,-9 3.669,-2.085 8.925,-2.209 11.937,0.094 v 0.001 c 1.467,1.025 2.933,2.05 4.739,3.313 L 24.195,-27.7 c -7.659,-4.895 -15.634,-8.618 -25.111,-8.059 l -26.383,4.532 c -1.763,0.242 -3.567,1.152 -3.533,3.535 -0.267,-0.122 0.884,2.489 2.201,3.634 L 0,0" /></g></g></g></g></svg>